<?xml version="1.0" encoding="utf-8"?>
<!-- Generator: Adobe Illustrator 26.0.3, SVG Export Plug-In . SVG Version: 6.00 Build 0)  -->
<svg version="1.0" id="Layer_1" xmlns="http://www.w3.org/2000/svg" xmlns:xlink="http://www.w3.org/1999/xlink" x="0px" y="0px"
	 viewBox="0 0 907.1 680.2" style="enable-background:new 0 0 907.1 680.2;" xml:space="preserve">
<style type="text/css">
	.st0{fill:#099DFD;}
</style>
<g>
	<path class="st0" d="M497.5,330.3c-22.8,0-41.3-18.4-41.3-41.2c0-22.8,18.4-41.3,41.2-41.3c22.8,0,41.3,18.4,41.3,41.2v0.1
		C538.7,311.9,520.3,330.3,497.5,330.3 M497.5,214.2c-41.3,0-74.9,33.5-74.9,74.8c0,41.3,33.5,74.9,74.8,74.9s74.9-33.5,74.9-74.8
		c0,0,0,0,0,0l0,0C572.3,247.8,538.8,214.3,497.5,214.2"/>
	<path class="st0" d="M621.8,233.5l-0.9,0.9l-1,1l-0.7-1.2l-0.6-1c-5.4-10-15.3-16.9-26.6-18.4l-2.8-0.6v149.7l2.8-0.4
		c17.8-2,31.1-17.3,30.8-35.2v-39.2c0.2-21.1,16.1-38.7,37-41l2.2-0.2v-33.6l-2.7,0.3c-14.4,1.9-27.7,8.6-37.7,19"/>
	<path class="st0" d="M161.8,330.4c-22.8,0-41.3-18.5-41.3-41.3c0-22.8,18.5-41.3,41.3-41.3c22.8,0,41.3,18.5,41.3,41.3
		C203,311.9,184.6,330.4,161.8,330.4C161.8,330.4,161.8,330.4,161.8,330.4 M209.8,229l-0.6,0.8l-0.6,0.8l-0.8-0.6l-0.8-0.6
		C174,204.5,127,211,102.1,244c-24.9,33-18.4,79.9,14.6,104.8c13,9.8,28.8,15.1,45,15.1c16.3,0.1,32.2-5.3,45.2-15.2l0.8-0.6
		l0.8-0.7l0.6,0.9l0.6,0.8c5.7,7.9,14.4,13.1,24,14.4l2.8,0.4V214.2l-2.8,0.4C224.2,216,215.5,221.1,209.8,229"/>
	<path class="st0" d="M745.3,330.4c-22.8,0-41.3-18.5-41.3-41.3c0-22.8,18.5-41.3,41.3-41.3c22.8,0,41.3,18.5,41.3,41.3
		C786.5,311.9,768.1,330.4,745.3,330.4C745.3,330.4,745.2,330.4,745.3,330.4 M817.2,214.6c-9.6,1.4-18.3,6.5-24,14.4l-0.6,0.8
		l-0.6,0.9l-0.8-0.6l-0.8-0.6c-32.9-25-79.9-18.5-104.8,14.4S667,323.7,700,348.6c13,9.9,28.9,15.2,45.2,15.2
		c16.3,0,32.2-5.3,45.2-15.2l0.8-0.6l0.8-0.7l0.6,0.9l0.6,0.8c5.7,7.9,14.4,13.1,24,14.4l2.8,0.4V214.2L817.2,214.6z"/>
	<path class="st0" d="M330.7,247.8L330.7,247.8c22.8,0,41.3,18.5,41.2,41.3c0,22.8-18.5,41.3-41.3,41.2c-22.8,0-41.2-18.5-41.2-41.2
		C289.4,266.3,307.8,247.8,330.7,247.8C330.6,247.8,330.7,247.8,330.7,247.8L330.7,247.8 M377.4,347.5c30.6-24.3,37.3-68,15.4-100.4
		c-1-1.6-2.2-3.1-3.4-4.6c8.8-5.8,14.6-15,16-25.4l0.4-2.8h-75.4c-41.3,0.1-74.7,33.6-74.7,74.9c0,22.7,10.4,44.2,28.1,58.3
		c-3.2,2.5-6.2,5.3-9,8.4l22.8,25.1c13.6-18.3,39.4-22.2,57.7-8.6c18.3,13.6,22.2,39.4,8.6,57.7c-3.2,4.3-7.3,8-11.9,10.8l22.8,25.1
		c33.1-24.6,40.1-71.4,15.4-104.6c-3.8-5.2-8.3-9.8-13.3-13.8"/>
</g>
</svg>
